# xmcd CD database file
#
# Track frame offsets:
#	150
#	23858
#	41190
#	58484
#	87312
#	104118
#	126232
#	145180
#	167615
#	185119
#	206383
#	226306
#	256508
#	274585
#	298327
#	316472
#
# Disc length: 4612 seconds
#
# Revision: 0
# Processed by: cddbd v1.5.2PL0 Copyright (c) Steve Scherf et al.
# Submitted via: CDex 1.81
#
DISCID=f7120210
DTITLE=Van Morrison - Duets
DYEAR=2015
DGENRE=Blues
TTITLE0=Van Morrison and Bobby Womack - Some Peace Of Mind
TTITLE1=Van Morrison and Mavis Staples - If I Ever Needed Someone
TTITLE2=Van Morrison and George Benson - Higher Than The World
TTITLE3=Van Morrison and Joss Stone - Wild Honey
TTITLE4=Van Morrison and P.J. Proby - Whatever Happened To P.J. Proby
TTITLE5=Van Morrison and Clare Teal - Carrying A Torch
TTITLE6=Van Morrison and Gregory Porter - The Eternal Kansas City
TTITLE7=Van Morrison and Mick Hucknall - Streets Of Arklow
TTITLE8=Van Morrison and Natalie Cole - These Are The Days
TTITLE9=Van Morrison and Georgie Fame - Get On With The Show
TTITLE10=Van Morrison and Shana Morrison - Rough God Goes Riding
TTITLE11=Van Morrison and Steve Winwood - Fire In The Belly
TTITLE12=Van Morrison and Chris Farlowe - Born To Sing
TTITLE13=Van Morrison and Mark Knopfler - Irish Heartbeat
TTITLE14=Van Morrison and Michael Buble - Real Real Gone
TTITLE15=Van Morrison and Taj Mahal - How Can A Poor Boy?
EXTD=YEAR: 2015
EXTT0=
EXTT1=
EXTT2=
EXTT3=
EXTT4=
EXTT5=
EXTT6=
EXTT7=
EXTT8=
EXTT9=
EXTT10=
EXTT11=
EXTT12=
EXTT13=
EXTT14=
EXTT15=
PLAYORDER=
